<svg xmlns="http://www.w3.org/2000/svg" width="32" height="32" viewBox="0 0 32 32">
  <style>
    .primary { fill: #4285f4; }
    .secondary { fill: #34a853; }
    .accent { fill: #ea4335; }
  </style>
  <rect width="32" height="32" rx="6" fill="white"/>
  <g transform="translate(4, 16)">
    <path class="primary" d="M0,0 L3,0 L3,-12 L0,-12 Z M5,0 L8,0 L8,-7 C8,-8.5 9,-9.5 10.5,-9.5 C12,-9.5 13,-8.5 13,-7 L13,0 L16,0 L16,-8 C16,-11 14,-13 11,-13 C9.5,-13 8,-12 7.5,-10.5 L7.5,-12 L5,-12 Z" />
    <path class="accent" d="M17,0 L20,0 L20,-12 L17,-12 Z" />
    <path class="secondary" d="M24,-6 C24,-9 21.5,-11.5 18.5,-11.5 C15.5,-11.5 13,-9 13,-6 C13,-3 15.5,-0.5 18.5,-0.5 C21.5,-0.5 24,-3 24,-6 Z M21,-6 C21,-4.5 20,-3.5 18.5,-3.5 C17,-3.5 16,-4.5 16,-6 C16,-7.5 17,-8.5 18.5,-8.5 C20,-8.5 21,-7.5 21,-6 Z" />
  </g>
</svg>